# xmcd
#
# Track frame offsets: 
#        150
#        21032
#        42802
#        62448
#        84020
#        103138
#        117830
#        133225
#        155341
#        176409
#        196511
#        217462
#        239034
#        265749
#
# Disc length: 3824 seconds
#
# Revision: 2
# Processed by: cddbd v1.5.1PL0 Copyright (c) Steve Scherf et al.
# Submitted via: ExactAudioCopy v0.95a5
#
DISCID=ba0eee0e
DTITLE=Various Artist - Gospel in the Groove
DYEAR=1900
DGENRE=Gospel
TTITLE0=Helen Baylor - Sold Out
TTITLE1=Philip Bailey - All Soldiers
TTITLE2=The Winans - If I Labor
TTITLE3=Terri Carroll - U Don't Hear Me
TTITLE4=Anointed - God's Personality
TTITLE5=Andrae Crouch and The Disciples - You Gave to Me
TTITLE6=Mighty Clouds of Joy - Everybody Ought to Praise His Name
TTITLE7=Tramaine Hawkins - Look at Me
TTITLE8=Commissioned - So Good to Know (The Savior)
TTITLE9=Al Green - Sure Feels Good
TTITLE10=Dennis Austin - I'll Shine for You
TTITLE11=New Jersey Mass Choir - Deliverance
TTITLE12=Troy Johnson - What's Going On
TTITLE13=Marvin Sapp - Over and Over Again
EXTD=
EXTT0=
EXTT1=
EXTT2=
EXTT3=
EXTT4=
EXTT5=
EXTT6=
EXTT7=
EXTT8=
EXTT9=
EXTT10=
EXTT11=
EXTT12=
EXTT13=
PLAYORDER=
